<?xml version="1.0" encoding="UTF-8" standalone="no"?>
<svg
   width="21.628971"
   height="8"
   version="1.1"
   id="svg2"
   sodipodi:docname="flourish.svg"
   inkscape:version="1.3.1 (91b66b0783, 2023-11-16, custom)"
   xmlns:inkscape="http://www.inkscape.org/namespaces/inkscape"
   xmlns:sodipodi="http://sodipodi.sourceforge.net/DTD/sodipodi-0.dtd"
   xmlns="http://www.w3.org/2000/svg"
   xmlns:svg="http://www.w3.org/2000/svg"
   xmlns:rdf="http://www.w3.org/1999/02/22-rdf-syntax-ns#"
   xmlns:cc="http://creativecommons.org/ns#"
   xmlns:dc="http://purl.org/dc/elements/1.1/">
  <defs
     id="defs2" />
  <sodipodi:namedview
     id="namedview2"
     pagecolor="#ffffff"
     bordercolor="#111111"
     borderopacity="1"
     inkscape:showpageshadow="false"
     inkscape:pageopacity="0"
     inkscape:pagecheckerboard="true"
     inkscape:deskcolor="#d1d1d1"
     showborder="true"
     labelstyle="default"
     inkscape:zoom="32"
     inkscape:cx="8.296875"
     inkscape:cy="9.6875"
     inkscape:window-width="3416"
     inkscape:window-height="1380"
     inkscape:window-x="0"
     inkscape:window-y="0"
     inkscape:window-maximized="1"
     inkscape:current-layer="svg2"
     showguides="true">
    <sodipodi:guide
       position="10.84375,0.90624998"
       orientation="1,0"
       id="guide2"
       inkscape:locked="false" />
    <sodipodi:guide
       position="15.958986,3.506441"
       orientation="1,0"
       id="guide3"
       inkscape:locked="false" />
  </sodipodi:namedview>
  <title
     id="title1">flourish black</title>
  <metadata
     id="metadata15">image/svg+xml<rdf:RDF>
  <cc:Work
     rdf:about="">
    <dc:title>flourish black</dc:title>
  </cc:Work>
</rdf:RDF>
</metadata>
  <g
     id="g2"
     transform="matrix(0.11228356,0,0,0.15217621,-26.366777,-18.134736)">
    <title
       id="title2">Layer 1</title>
    <g
       id="svg_1">
      <path
         fill="#000000"
         fill-rule="evenodd"
         stroke-width="1px"
         id="path3195"
         d="m 252.80223,144.29863 c 6.72588,-2.43384 9.71181,-6.34712 10.11974,-11.55222 0.58783,-7.57263 -10.16825,-11.04705 -15.69397,-8.01252 -3.32587,1.82651 -7.70855,6.36833 -7.95058,11.77398 0.50598,12.43523 7.42139,18.16086 16.1978,20.01583 17.0278,3.59907 45.49515,-20.44939 67.24786,-24.56615 22.37369,-4.23425 31.41758,6.21822 36.52143,14.08722 -10.63095,-8.62088 -23.25724,-10.60755 -33.4159,-8.68292 -23.30847,4.41603 -44.96557,29.06717 -70.35603,25.50225 -12.89786,-2.33381 -23.38293,-14.56854 -20.0121,-29.00528 5.29887,-20.18138 25.84943,-16.89565 28.95181,-6.09265 3.12561,10.88352 -4.69003,17.24546 -11.61006,16.53246 z" />
      <path
         fill="#000000"
         fill-rule="evenodd"
         stroke-width="1px"
         d="m 366.12491,152.56335 c -37.38141,-22.15808 -51.7331,3.42112 -42.6673,19.17661 -4.4433,-16.77725 6.21765,-23.40445 16.23727,-23.04198 16.86857,0.61029 31.20993,12.33658 37.25934,15.34677 z"
         id="path3199" />
    </g>
  </g>
</svg>
